<?xml version="1.0" standalone="no"?>
<!DOCTYPE svg PUBLIC "-//W3C//DTD SVG 20010904//EN"
 "http://www.w3.org/TR/2001/REC-SVG-20010904/DTD/svg10.dtd">
<svg version="1.0" xmlns="http://www.w3.org/2000/svg"
 viewBox="0 0 500.000000 499.000000"
 preserveAspectRatio="xMidYMid meet">

<g transform="translate(0.000000,499.000000) scale(0.100000,-0.100000)"
fill="#000000" stroke="none">
<path d="M2355 4869 c-389 -23 -796 -158 -1130 -374 -141 -92 -267 -195 -400
-329 -506 -509 -751 -1193 -685 -1911 86 -938 729 -1744 1629 -2044 140 -47
210 -64 376 -92 155 -26 451 -36 606 -20 457 48 868 211 1244 494 114 86 347
323 441 449 477 639 608 1458 354 2210 -261 772 -894 1352 -1698 1557 -197 51
-494 75 -737 60z m470 -374 c859 -128 1550 -804 1702 -1665 46 -260 35 -584
-27 -831 -175 -690 -675 -1228 -1350 -1449 -219 -72 -359 -94 -615 -95 -128 0
-245 5 -300 14 -509 76 -947 324 -1283 726 -456 544 -586 1317 -337 1991 269
727 937 1243 1710 1323 118 13 368 5 500 -14z"/>
<path d="M2328 4400 c-654 -69 -1238 -476 -1528 -1064 -79 -161 -129 -305
-166 -479 -35 -167 -44 -458 -20 -627 58 -396 217 -741 475 -1027 236 -261
505 -438 836 -549 169 -56 330 -84 526 -91 549 -20 1045 174 1428 557 329 329
514 722 561 1189 49 496 -112 1015 -436 1401 -304 363 -719 600 -1179 675
-113 19 -383 27 -497 15z m269 -791 c29 -18 55 -63 188 -335 85 -173 160 -316
167 -319 7 -3 155 -25 328 -50 173 -25 335 -52 358 -61 56 -21 82 -62 82 -129
l1 -50 -257 -253 -256 -253 5 -47 c3 -26 28 -182 56 -347 51 -295 51 -301 35
-343 -20 -54 -62 -82 -123 -82 -35 0 -71 14 -175 69 -72 38 -211 110 -308 160
l-176 92 -99 -52 c-54 -28 -191 -100 -304 -160 -172 -91 -214 -109 -250 -109
-78 0 -139 57 -139 130 0 17 18 131 39 253 22 122 47 269 56 327 l18 105 -250
245 c-272 267 -284 283 -263 359 12 44 54 86 97 95 36 8 643 96 661 96 7 0 83
143 170 317 132 266 163 321 191 340 43 29 102 30 148 2z"/>
<path d="M2355 3218 c-83 -166 -160 -315 -173 -329 -12 -15 -37 -32 -55 -38
-18 -5 -178 -31 -357 -56 -178 -26 -328 -49 -332 -51 -4 -3 -8 -11 -8 -18 0
-8 114 -126 254 -263 220 -215 255 -254 261 -286 5 -27 -9 -131 -49 -362 -31
-177 -56 -332 -56 -343 0 -28 23 -33 61 -13 470 248 586 304 625 303 34 0 99
-31 349 -162 266 -141 309 -161 321 -148 12 12 7 57 -41 336 -59 349 -62 379
-41 420 8 15 123 133 255 261 223 216 259 259 232 275 -4 3 -154 26 -332 52
-226 32 -337 52 -367 66 -42 20 -45 24 -201 337 -118 236 -163 317 -177 319
-16 2 -44 -47 -169 -300z"/>
</g>
</svg>
