<?xml version="1.0" standalone="no"?>
<!DOCTYPE svg PUBLIC "-//W3C//DTD SVG 20010904//EN"
 "http://www.w3.org/TR/2001/REC-SVG-20010904/DTD/svg10.dtd">
<svg version="1.0" xmlns="http://www.w3.org/2000/svg"
  viewBox="0 0 507.000000 492.000000"
 preserveAspectRatio="xMidYMid meet">

<g transform="translate(0.000000,492.000000) scale(0.100000,-0.100000)"
fill="#000000" stroke="none">
<path d="M1318 4627 c-202 -106 -368 -194 -368 -197 0 -3 46 -29 103 -57 56
-29 167 -86 247 -128 80 -42 200 -105 268 -141 l122 -64 837 0 836 0 373 193
c206 105 374 194 374 197 0 3 -168 92 -374 198 l-373 192 -839 -1 -839 0 -367
-192z"/>
<path d="M488 4078 c-199 -165 -367 -303 -371 -308 -5 -4 24 -25 65 -47 40
-22 290 -157 555 -301 265 -144 485 -262 490 -262 8 0 368 805 368 823 0 7
-187 107 -617 329 l-126 65 -364 -299z"/>
<path d="M4110 4329 c-41 -22 -210 -110 -375 -196 -165 -86 -301 -157 -303
-158 -3 -3 65 -147 198 -420 56 -115 122 -252 146 -302 24 -51 48 -93 53 -93
5 0 271 136 590 301 l580 301 -397 304 c-218 167 -401 304 -407 303 -5 0 -44
-18 -85 -40z"/>
<path d="M1660 3903 c-12 -27 -61 -138 -110 -248 -48 -110 -119 -270 -157
-355 l-69 -155 597 -3 c329 -1 870 -1 1203 0 l606 3 -193 400 -193 400 -832 3
-831 2 -21 -47z"/>
<path d="M555 3013 c236 -351 519 -773 630 -938 111 -165 321 -478 467 -695
588 -877 671 -1000 674 -997 2 2 -34 93 -80 203 -46 109 -132 316 -191 459
-59 143 -170 409 -245 590 -75 182 -186 447 -245 590 -248 599 -345 829 -352
836 -6 5 -938 513 -1062 578 -15 8 134 -222 404 -626z"/>
<path d="M4380 3341 c-391 -203 -538 -284 -548 -302 -6 -13 -90 -215 -185
-449 -96 -234 -233 -569 -305 -745 -72 -176 -215 -525 -317 -775 -102 -250
-208 -509 -235 -574 -27 -66 -48 -121 -46 -123 1 -2 77 108 168 244 91 137
324 484 518 773 194 289 517 770 718 1070 201 300 457 681 570 848 112 167
202 305 200 307 -2 2 -244 -121 -538 -274z"/>
<path d="M1323 3038 c3 -7 61 -148 130 -313 306 -736 421 -1014 442 -1065 12
-30 84 -203 160 -385 75 -181 186 -449 247 -595 60 -146 128 -308 150 -360 22
-52 49 -119 60 -148 12 -29 25 -49 29 -45 4 4 41 91 82 193 41 102 123 302
182 445 58 143 165 404 237 580 72 176 148 361 168 410 20 50 96 234 168 410
72 176 179 437 237 580 59 143 111 270 116 283 l9 22 -1211 0 c-965 0 -1210
-3 -1206 -12z"/>
</g>
</svg>
