<?xml version="1.0" standalone="no"?>
<!DOCTYPE svg PUBLIC "-//W3C//DTD SVG 20010904//EN"
 "http://www.w3.org/TR/2001/REC-SVG-20010904/DTD/svg10.dtd">
<svg version="1.0" xmlns="http://www.w3.org/2000/svg"
 width="612.000000pt" height="408.000000pt" viewBox="0 0 612.000000 408.000000"
 preserveAspectRatio="xMidYMid meet">

<g transform="translate(0.000000,408.000000) scale(0.100000,-0.100000)"
fill="#000000" stroke="none">
<path d="M2805 2894 c-45 -7 -121 -27 -170 -45 -218 -76 -347 -183 -430 -355
-87 -178 -63 -348 66 -483 114 -118 302 -192 487 -191 l77 1 -58 24 c-296 123
-451 270 -465 441 -8 99 52 231 151 333 109 112 245 188 507 284 29 11 -86 5
-165 -9z"/>
<path d="M3145 2878 c-88 -16 -217 -59 -305 -100 -195 -93 -322 -209 -377
-343 -38 -92 -35 -114 4 -40 102 189 390 369 743 465 l105 28 -60 0 c-33 0
-82 -4 -110 -10z"/>
<path d="M3620 2836 c0 -2 33 -17 72 -32 172 -66 285 -158 345 -283 31 -64 37
-87 40 -165 3 -50 0 -111 -6 -136 -14 -63 -7 -61 20 7 19 47 23 78 24 158 0
92 -2 105 -32 168 -63 132 -206 237 -370 272 -71 15 -93 18 -93 11z"/>
<path d="M3316 2782 c-3 -5 32 -24 77 -42 127 -52 215 -108 298 -191 59 -58
81 -89 98 -133 80 -213 -75 -458 -387 -610 -37 -18 -96 -44 -132 -58 -36 -14
-83 -33 -105 -42 l-40 -17 70 6 c395 33 677 222 760 509 72 248 -110 492 -418
560 -81 18 -214 29 -221 18z"/>
<path d="M2821 2543 c-40 -151 -121 -484 -121 -497 0 -13 13 -16 79 -16 l79 0
27 118 c37 161 35 157 46 141 5 -8 9 -41 9 -75 0 -34 3 -88 6 -122 l7 -61 54
-7 c42 -5 57 -3 64 7 5 8 32 69 60 137 73 170 82 166 50 -23 -10 -60 -17 -113
-14 -117 2 -5 39 -8 82 -8 l78 0 17 123 c21 150 56 409 56 420 0 4 -48 6 -106
5 l-107 -3 -56 -132 c-31 -73 -60 -133 -66 -133 -6 0 -13 50 -16 117 -4 65 -7
128 -8 141 -1 21 -4 22 -106 22 l-104 0 -10 -37z"/>
<path d="M2047 2413 c-11 -19 -36 -112 -41 -153 -27 -207 138 -413 379 -475
32 -8 75 -15 95 -15 32 1 28 3 -32 25 -284 101 -438 311 -399 546 11 66 10 93
-2 72z"/>
<path d="M3655 2208 c-59 -122 -212 -245 -427 -348 -116 -55 -284 -113 -372
-129 -74 -14 -83 -21 -25 -21 119 0 329 55 463 121 211 105 336 228 385 382
21 63 8 60 -24 -5z"/>
<path d="M2600 1647 c-39 -19 -60 -72 -60 -150 0 -113 39 -157 140 -157 79 0
114 20 135 74 33 85 5 215 -51 236 -36 14 -134 12 -164 -3z m125 -142 c0 -77
-1 -80 -26 -89 -50 -17 -59 -5 -59 82 0 43 3 82 7 86 4 4 23 6 43 4 l35 -3 0
-80z"/>
<path d="M3845 1651 c-35 -15 -55 -47 -64 -102 -12 -73 2 -147 34 -179 23 -23
33 -25 106 -25 78 0 82 1 108 31 62 69 46 240 -26 273 -28 13 -129 14 -158 2z
m123 -144 c3 -74 2 -78 -22 -88 -13 -6 -36 -9 -50 -5 -25 6 -26 10 -26 72 0
87 11 106 58 102 l37 -3 3 -78z"/>
<path d="M2075 1543 c-4 -60 -8 -128 -9 -153 l-1 -45 45 0 45 0 3 73 c2 39 7
72 12 72 9 0 14 -16 38 -110 7 -31 12 -35 42 -35 37 0 33 -6 60 103 16 63 29
51 32 -30 l3 -73 45 0 45 0 -3 105 c-1 58 -5 127 -8 153 l-6 48 -61 -3 -62 -3
-16 -69 c-8 -39 -20 -71 -27 -74 -11 -3 -24 36 -38 111 l-6 37 -63 0 -63 0 -7
-107z"/>
<path d="M2997 1643 c-17 -27 -77 -199 -77 -219 0 -22 4 -23 77 -26 73 -3 77
-4 83 -28 5 -21 12 -25 48 -28 38 -3 42 -1 42 20 0 13 8 28 18 34 25 16 26 61
2 74 -18 9 -20 21 -20 95 l0 85 -84 0 c-47 0 -87 -3 -89 -7z m81 -115 c-2 -42
-7 -54 -22 -56 -33 -7 -37 12 -16 61 28 62 42 60 38 -5z"/>
<path d="M3316 1603 c-3 -26 -8 -96 -12 -155 l-6 -108 45 0 c53 0 57 7 57 91
0 32 4 59 9 59 4 0 17 -33 27 -72 19 -73 19 -73 54 -73 l35 0 15 69 c21 96 38
97 42 4 l3 -73 45 0 45 0 -2 45 c-1 25 -4 93 -8 153 l-7 107 -62 0 -63 0 -12
-57 c-7 -32 -15 -66 -18 -76 -9 -35 -28 -10 -43 59 l-15 69 -62 3 -61 3 -6
-48z"/>
</g>
</svg>
