<?xml version="1.0" standalone="no"?>
<!DOCTYPE svg PUBLIC "-//W3C//DTD SVG 20010904//EN"
 "http://www.w3.org/TR/2001/REC-SVG-20010904/DTD/svg10.dtd">
<svg version="1.0" xmlns="http://www.w3.org/2000/svg"
 viewBox="0 0 493.000000 505.000000"
 preserveAspectRatio="xMidYMid meet">

<g transform="translate(0.000000,505.000000) scale(0.100000,-0.100000)"
fill="#000000" stroke="none">
<path d="M1375 4974 c-246 -36 -380 -165 -361 -347 16 -154 126 -272 284 -306
35 -7 205 -11 492 -11 l440 0 0 132 0 131 -82 79 c-156 148 -328 253 -488 298
-73 20 -224 33 -285 24z"/>
<path d="M3478 4970 c-199 -36 -380 -136 -559 -308 l-99 -94 0 -130 0 -129
473 3 472 3 67 32 c81 38 142 97 177 172 37 79 37 194 1 264 -61 119 -190 182
-392 192 -51 2 -114 0 -140 -5z"/>
<path d="M2505 4785 c-5 -2 -22 -6 -37 -9 -37 -8 -98 -63 -114 -103 -10 -23
-14 -81 -14 -198 l0 -165 185 0 185 0 0 172 c0 163 -1 173 -24 212 -13 23 -41
51 -63 62 -37 21 -98 36 -118 29z"/>
<path d="M220 3735 l0 -475 815 0 815 0 0 475 0 475 -815 0 -815 0 0 -475z"/>
<path d="M1952 3738 l3 -473 570 0 570 0 3 473 2 472 -575 0 -575 0 2 -472z"/>
<path d="M3202 3738 l3 -473 813 -3 812 -2 0 475 0 475 -815 0 -815 0 2 -472z"/>
<path d="M510 1670 l0 -1480 720 0 720 0 0 1480 0 1480 -720 0 -720 0 0 -1480z"/>
<path d="M2050 1670 l0 -1480 475 0 475 0 0 1480 0 1480 -475 0 -475 0 0
-1480z"/>
<path d="M3108 3138 c-3 -9 -2 -2880 2 -2940 0 -5 322 -8 715 -8 l715 0 0
1480 0 1480 -714 0 c-562 0 -715 -3 -718 -12z"/>
</g>
</svg>
